<svg xmlns="http://www.w3.org/2000/svg" width="600" height="416" viewBox="0 0 600 416" version="1.1"><path d="M 371 109.137 C 356.388 115.004, 335.681 124.120, 331.619 126.475 C 329.353 127.789, 325.250 130.074, 322.500 131.553 C 312.260 137.062, 301.614 143.601, 290.022 151.500 C 285.986 154.250, 281.033 157.625, 279.015 159 C 255.750 174.854, 214.126 217.658, 190.318 250.212 C 187.467 254.110, 184.736 257.569, 184.248 257.899 C 183.760 258.230, 181.389 261.200, 178.980 264.500 C 176.571 267.800, 173.976 271.134, 173.212 271.909 C 172.449 272.684, 169.953 275.834, 167.666 278.909 C 163.523 284.480, 149.394 302.698, 147.903 304.390 C 147.472 304.880, 141.980 300.155, 135.698 293.890 C 118.890 277.130, 101.170 260.072, 86.484 246.514 C 79.343 239.922, 69 230.202, 63.500 224.914 C 51.995 213.852, 37.587 200.189, 24.137 187.585 L 14.774 178.810 11.988 183.018 C 10.456 185.332, 8.471 189.762, 7.575 192.862 C 6.680 195.963, 5.543 199.751, 5.049 201.280 C 3.872 204.924, 4.355 222.201, 5.802 228.249 C 6.428 230.862, 9.046 237.162, 11.622 242.249 C 16.027 250.953, 17.435 252.618, 35.402 270.394 C 45.906 280.786, 58.876 293.272, 64.225 298.140 C 84.498 316.592, 92.873 327.202, 96.080 338.500 C 99.148 349.303, 96.883 373.362, 92.453 377.039 C 91.654 377.702, 91 378.702, 91 379.260 C 91 380.464, 82.454 393.596, 79.854 396.387 C 78.857 397.457, 76.795 400.170, 75.271 402.416 C 73.747 404.662, 71.713 407.088, 70.750 407.807 C 69.788 408.525, 69 409.725, 69 410.473 C 69 411.221, 68.438 412.060, 67.750 412.338 C 67.063 412.615, 85.699 412.878, 109.164 412.921 L 151.828 413 155.085 407.750 C 157.978 403.085, 160.651 398.526, 167.139 387.191 C 174.852 373.713, 178.066 367.864, 184.278 356 C 198.026 329.747, 203.083 320.252, 207.447 312.500 C 208.996 309.750, 211.872 304.575, 213.838 301 C 215.805 297.425, 217.884 294.017, 218.457 293.426 C 219.031 292.835, 220.562 289.910, 221.860 286.926 C 236.055 254.287, 260.270 213.862, 282.100 186.359 C 306.990 155.002, 334.742 131.475, 368.628 113.007 C 382.357 105.525, 383.127 104.268, 371 109.137 M 33.500 135.176 C 30.750 135.696, 27.939 136.169, 27.254 136.228 C 26.568 136.286, 22.141 138.171, 17.415 140.417 L 8.822 144.500 16.667 152 C 20.982 156.125, 26.984 161.757, 30.006 164.515 C 43.178 176.537, 68.452 200.212, 79.519 210.897 C 86.130 217.279, 103.388 233.975, 117.870 248 C 132.351 262.025, 144.493 273.590, 144.850 273.699 C 145.208 273.809, 149.649 268.409, 154.721 261.699 C 159.793 254.990, 166.543 246.056, 169.721 241.847 C 172.899 237.638, 179.462 229.150, 184.304 222.985 C 189.147 216.820, 192.928 211.595, 192.708 211.375 C 192.487 211.154, 190.775 211.605, 188.904 212.376 C 180.388 215.884, 168.571 215.216, 159 210.687 C 153.599 208.130, 144.564 200.218, 108.976 166.874 C 87.883 147.111, 85.556 145.164, 79.338 142.069 C 68.479 136.665, 61.484 134.902, 49.500 134.552 C 43.450 134.375, 36.250 134.655, 33.500 135.176 M 356.250 188.989 C 354.462 190.079, 353 190.748, 353 190.475 C 353 189.661, 335.056 199.317, 327.244 204.334 C 320.882 208.421, 314.644 212.965, 301.319 223.220 C 295.056 228.040, 274.424 249.287, 269.001 256.500 C 266.107 260.350, 263.460 263.725, 263.120 264 C 262.779 264.275, 261.559 265.850, 260.410 267.500 C 250.663 281.487, 247 286.941, 247 287.467 C 247 288.334, 242.655 294.431, 241.750 294.833 C 241.338 295.017, 241 295.649, 241 296.239 C 241 296.829, 239.875 298.786, 238.500 300.589 C 237.125 302.392, 236 304.156, 236 304.509 C 236 304.862, 234.251 308.155, 232.113 311.826 C 229.975 315.496, 226.749 321.200, 224.945 324.500 C 223.141 327.800, 220.526 332.525, 219.134 335 C 215.039 342.281, 207.338 356.925, 203.356 365 C 201.322 369.125, 199.397 372.725, 199.079 373 C 198.168 373.787, 196.345 376.975, 192.790 384 C 190.980 387.575, 189.160 390.651, 188.744 390.835 C 188.328 391.020, 188.242 391.582, 188.553 392.085 C 188.864 392.588, 188.736 393, 188.270 393 C 187.804 393, 186.092 395.587, 184.467 398.750 C 182.841 401.913, 181.058 404.831, 180.505 405.235 C 179.952 405.639, 179.868 405.976, 180.318 405.985 C 180.768 405.993, 180.206 407.307, 179.068 408.904 C 177.931 410.502, 177 412.077, 177 412.404 C 177 412.732, 188.864 413, 203.364 413 L 229.728 413 231.286 408.750 C 232.143 406.413, 234.008 400.900, 235.430 396.500 C 236.853 392.100, 238.430 387.600, 238.936 386.500 C 239.665 384.913, 245.022 369.104, 245.544 367 C 245.612 366.725, 246.216 365.172, 246.886 363.549 C 247.555 361.926, 248.729 358.101, 249.494 355.049 C 250.258 351.997, 252.062 344.775, 253.502 339 C 257.643 322.395, 267.581 294.672, 274.473 280.500 C 291.859 244.753, 316.142 217.032, 349.371 194.997 C 356.004 190.599, 360.997 187.002, 360.466 187.004 C 359.935 187.006, 358.038 187.899, 356.250 188.989 M 326.500 326.646 C 298.330 339.438, 279.412 358.749, 262.979 391.489 C 258.560 400.295, 254.596 407.950, 254.171 408.500 C 253.747 409.050, 253.098 410.288, 252.731 411.250 C 252.101 412.901, 254.688 413, 298.531 413 C 324.089 413, 345 412.689, 345 412.309 C 345 411.929, 338.681 405.425, 330.958 397.854 C 318.909 386.044, 316.480 383.129, 313.847 377.322 C 306.804 361.790, 311.838 342.749, 326.095 330.987 C 329.068 328.534, 331.725 326.249, 332 325.909 C 332.275 325.569, 333.850 324.568, 335.500 323.685 C 341.445 320.504, 336.293 322.199, 326.500 326.646" stroke="none" fill="#042a6b" fill-rule="evenodd"/><path d="M 585.972 9.548 C 576.865 16.763, 555.787 31.285, 547.487 36.063 C 525.380 48.789, 510.723 56.344, 483.500 69.044 C 473.114 73.889, 456.346 79.951, 419.728 92.097 C 397.854 99.353, 380.181 105.514, 380.456 105.789 C 380.731 106.064, 375.289 109.377, 368.363 113.152 C 344.092 126.380, 322.381 142.706, 303.903 161.626 C 281.190 184.883, 259.759 214.544, 241.494 248 C 230.876 267.451, 223.922 281.266, 224.252 282.255 C 224.432 282.795, 227.482 278.797, 231.029 273.369 C 234.577 267.941, 237.771 263.275, 238.126 263 C 238.482 262.725, 241.592 258.675, 245.037 254 C 273.875 214.869, 319.667 180.094, 367.500 161 C 384.233 154.320, 407.544 146.885, 427 142.022 C 468.337 131.690, 497.050 122.139, 516.500 112.249 C 520.350 110.291, 525.300 107.796, 527.500 106.703 C 529.700 105.611, 536 102.004, 541.500 98.688 C 569.631 81.729, 586.722 61.652, 594.014 37.001 C 596.440 28.803, 598.002 6.614, 596.361 3.680 C 595.583 2.290, 594.017 3.174, 585.972 9.548 M 535.937 125.106 C 504.825 140.402, 477.559 150.187, 437.379 160.476 C 408.692 167.822, 365 182.604, 365 184.964 C 365 185.416, 364.302 186.054, 363.448 186.382 C 362.568 186.719, 362.158 186.554, 362.500 186 C 362.842 185.447, 362.433 185.280, 361.558 185.616 C 360.707 185.943, 360.308 186.689, 360.670 187.275 C 361.087 187.949, 360.699 188.098, 359.612 187.681 C 358.668 187.319, 358.126 187.395, 358.407 187.850 C 358.689 188.305, 354.061 191.895, 348.124 195.828 C 307.354 222.835, 279.691 259.891, 262.142 311 C 256.089 328.629, 251 346.244, 251 349.565 C 251 350.552, 254.493 344.417, 258.763 335.930 C 268.519 316.537, 275.802 305.363, 287.281 292.177 C 311.773 264.043, 347.014 244.229, 391.500 233.580 C 397.550 232.132, 405.875 230.063, 410 228.982 C 414.125 227.902, 425.825 225.019, 436 222.575 C 468.095 214.865, 481.787 209.844, 500 199.103 C 507.191 194.862, 512.323 190.704, 521.111 182 C 533.708 169.524, 538.315 162.607, 543.090 149 C 546.084 140.469, 548.808 122.408, 547.324 120.924 C 546.725 120.325, 542.527 121.866, 535.937 125.106 M 65.500 227 C 69.320 230.850, 72.671 234, 72.946 234 C 73.221 234, 70.320 230.850, 66.500 227 C 62.680 223.150, 59.329 220, 59.054 220 C 58.779 220, 61.680 223.150, 65.500 227 M 483.500 230.681 C 473.746 234.170, 440.389 243.158, 410 250.486 C 393.023 254.581, 376.553 259.310, 367.500 262.689 C 351.142 268.797, 332.451 278.794, 320.846 287.644 C 314.921 292.163, 296.036 312.311, 291.871 318.557 C 285.024 328.825, 277.852 341.514, 274.099 350 C 267.709 364.448, 254 403.750, 254 407.624 C 254 408.513, 257.575 402.093, 261.944 393.357 C 278.388 360.478, 295.981 341.564, 321.867 328.934 C 327.569 326.152, 332.880 324.124, 333.669 324.427 C 334.467 324.733, 334.833 324.538, 334.493 323.989 C 334.157 323.445, 334.246 322.943, 334.691 322.872 C 335.136 322.802, 336.400 322.633, 337.500 322.496 C 338.600 322.359, 343.100 321.097, 347.500 319.691 C 355.456 317.150, 363.856 315.045, 382 311.047 C 387.225 309.896, 394.200 308.311, 397.500 307.524 C 400.800 306.738, 407.775 305.149, 413 303.995 C 435.854 298.943, 447.908 294.265, 457.914 286.566 C 472.496 275.345, 479.899 264.905, 485.393 247.812 C 487.992 239.728, 489.476 230.396, 488.275 229.699 C 487.849 229.453, 485.700 229.894, 483.500 230.681 M 88.250 413.749 C 99.663 413.909, 118.338 413.909, 129.750 413.749 C 141.163 413.588, 131.825 413.457, 109 413.457 C 86.175 413.457, 76.838 413.588, 88.250 413.749 M 189.750 413.747 C 197.037 413.918, 208.963 413.918, 216.250 413.747 C 223.537 413.577, 217.575 413.437, 203 413.437 C 188.425 413.437, 182.463 413.577, 189.750 413.747 M 275.750 413.749 C 288.538 413.907, 309.463 413.907, 322.250 413.749 C 335.038 413.591, 324.575 413.461, 299 413.461 C 273.425 413.461, 262.963 413.591, 275.750 413.749" stroke="none" fill="#059ce2" fill-rule="evenodd"/></svg>